<?xml version="1.0" encoding="UTF-8"?>
<svg id="Layer_2" data-name="Layer 2" xmlns="http://www.w3.org/2000/svg" viewBox="0 0 800 800">
  <defs>
    <!-- <style>
      .cls-1 {
        fill: #fff;
      }
    </style> -->
  </defs>
  <g id="Layer_2-2" data-name="Layer 2">
    <path class="cls-1" d="m800,400c0,16.84-1.03,33.52-3.06,50H3.06c-2.03-16.48-3.06-33.16-3.06-50,0-54.04,10.56-106.42,31.39-155.67,20.14-47.62,49-90.4,85.77-127.17,36.77-36.77,79.55-65.63,127.17-85.77C293.58,10.56,345.96,0,400,0s106.42,10.56,155.67,31.39c47.62,20.14,90.41,49,127.17,85.77,36.77,36.77,65.63,79.55,85.77,127.17,20.83,49.25,31.39,101.63,31.39,155.67Z"/>
    <path class="cls-1" d="m644.03,717c-27.07,20.92-56.64,38.2-88.36,51.61-49.25,20.83-101.63,31.39-155.67,31.39s-106.42-10.56-155.67-31.39c-31.72-13.41-61.29-30.7-88.36-51.61h488.06Z"/>
    <path class="cls-1" d="m770.95,550c-.76,1.9-1.54,3.79-2.34,5.67-9.08,21.46-19.92,41.94-32.48,61.33H63.87c-12.56-19.39-23.4-39.87-32.48-61.33-.8-1.88-1.58-3.77-2.34-5.67h741.9Z"/>
  </g>
</svg>